<svg width="65" height="63" viewBox="0 0 65 63" fill="none" xmlns="http://www.w3.org/2000/svg">
<rect x="23.0312" y="15.3536" width="42" height="42" rx="4" transform="rotate(7.77055 23.0312 15.3536)" fill="#CEE3FF"/>
<g clip-path="url(#clip0_397_12868)">
<path d="M29.6159 9.24578C29.8797 9.1795 30.1594 9.2208 30.3929 9.36041C30.6264 9.50011 30.7953 9.72681 30.8617 9.99067L33.7625 21.519C33.8323 21.7965 34.0092 22.0358 34.2548 22.1826C34.5002 22.3294 34.794 22.3721 35.0714 22.3024L44.2586 19.9906C44.5225 19.9243 44.8021 19.9657 45.0357 20.1053C45.2692 20.2449 45.4379 20.4717 45.5044 20.7355L50.5661 40.8516C50.9731 42.4692 50.7212 44.1823 49.8652 45.6139C49.0093 47.0455 47.6194 48.0782 46.0019 48.4852L25.5855 53.6225C23.968 54.0294 22.2548 53.7776 20.8233 52.9216C19.3917 52.0656 18.359 50.6757 17.9519 49.0582L10.7598 20.4756C10.3529 18.858 10.6047 17.1449 11.4607 15.7133C12.3167 14.2818 13.7066 13.2491 15.3241 12.842L29.6159 9.24578ZM26.8439 41.3668C26.5665 41.4366 26.3281 41.6134 26.1812 41.8589C26.0344 42.1043 25.9908 42.3983 26.0605 42.6757C26.1303 42.9532 26.3081 43.1922 26.5537 43.3391C26.7992 43.4857 27.093 43.5286 27.3703 43.4589L39.6193 40.3767C39.8968 40.3069 40.1361 40.13 40.2829 39.8844C40.4298 39.6388 40.4723 39.3444 40.4025 39.0669C40.3326 38.7896 40.1559 38.551 39.9105 38.4042C39.6649 38.2574 39.3704 38.2148 39.0929 38.2847L26.8439 41.3668ZM24.789 33.2005C24.5116 33.2703 24.2732 33.4471 24.1264 33.6925C23.9796 33.938 23.9359 34.232 24.0056 34.5094C24.0755 34.7869 24.2532 35.0259 24.4988 35.1727C24.7443 35.3193 25.0381 35.3623 25.3154 35.2925L37.5645 32.2103C37.842 32.1405 38.0812 31.9637 38.2281 31.7181C38.3749 31.4725 38.4174 31.178 38.3476 30.9005C38.2778 30.6233 38.101 30.3847 37.8556 30.2379C37.61 30.091 37.3156 30.0485 37.0381 30.1183L24.789 33.2005Z" fill="#0455BE" stroke="white"/>
<path d="M33.6053 10.0036C33.5108 9.62796 33.8447 9.28995 34.1958 9.45127C34.4938 9.58902 34.7722 9.76645 35.0309 9.98357L43.3383 17.0043C43.5264 17.1653 43.439 17.4565 43.1981 17.5171L36.465 19.2114C36.3296 19.2454 36.1862 19.2243 36.0664 19.1527C35.9466 19.0811 35.8602 18.9648 35.8261 18.8294L33.6053 10.0036Z" fill="#0455BE" stroke="white"/>
</g>
<defs>
<clipPath id="clip0_397_12868">
<rect width="50.5254" height="50.5254" fill="white" transform="translate(0 12.3292) rotate(-14.1239)"/>
</clipPath>
</defs>
</svg>
