<svg width="8" height="8" viewBox="0 0 8 8" fill="none" xmlns="http://www.w3.org/2000/svg">
<path d="M6.75 1.5H5.25V1.125C5.25 0.95924 5.18415 0.800269 5.06694 0.683058C4.94973 0.565848 4.79076 0.5 4.625 0.5H3.375C3.20924 0.5 3.05027 0.565848 2.93306 0.683058C2.81585 0.800269 2.75 0.95924 2.75 1.125V1.5H1.25C1.1837 1.5 1.12011 1.52634 1.07322 1.57322C1.02634 1.62011 1 1.6837 1 1.75C1 1.8163 1.02634 1.87989 1.07322 1.92678C1.12011 1.97366 1.1837 2 1.25 2H1.51562L1.8125 6.76438C1.83469 7.18391 2.15625 7.5 2.5625 7.5H5.4375C5.84578 7.5 6.16094 7.19094 6.1875 6.76562L6.48438 2H6.75C6.8163 2 6.87989 1.97366 6.92678 1.92678C6.97366 1.87989 7 1.8163 7 1.75C7 1.6837 6.97366 1.62011 6.92678 1.57322C6.87989 1.52634 6.8163 1.5 6.75 1.5ZM3.00891 6.5H3C2.93521 6.50004 2.87294 6.47493 2.8263 6.42995C2.77966 6.38498 2.75231 6.32365 2.75 6.25891L2.625 2.75891C2.62264 2.6926 2.64671 2.62808 2.69193 2.57952C2.73714 2.53097 2.79979 2.50236 2.86609 2.5C2.9324 2.49764 2.99692 2.52171 3.04548 2.56693C3.09403 2.61214 3.12264 2.67479 3.125 2.74109L3.25 6.24109C3.25119 6.27393 3.2459 6.30668 3.23442 6.33747C3.22295 6.36825 3.20551 6.39648 3.18312 6.42052C3.16073 6.44457 3.13382 6.46397 3.10393 6.4776C3.07403 6.49124 3.04174 6.49885 3.00891 6.5ZM4.25 6.25C4.25 6.3163 4.22366 6.37989 4.17678 6.42678C4.12989 6.47366 4.0663 6.5 4 6.5C3.9337 6.5 3.87011 6.47366 3.82322 6.42678C3.77634 6.37989 3.75 6.3163 3.75 6.25V2.75C3.75 2.6837 3.77634 2.62011 3.82322 2.57322C3.87011 2.52634 3.9337 2.5 4 2.5C4.0663 2.5 4.12989 2.52634 4.17678 2.57322C4.22366 2.62011 4.25 2.6837 4.25 2.75V6.25ZM4.75 1.5H3.25V1.125C3.24981 1.10853 3.25292 1.09219 3.25913 1.07694C3.26535 1.06169 3.27455 1.04784 3.28619 1.03619C3.29784 1.02455 3.31169 1.01535 3.32694 1.00913C3.34219 1.00292 3.35853 0.999812 3.375 1H4.625C4.64147 0.999812 4.65781 1.00292 4.67306 1.00913C4.68831 1.01535 4.70216 1.02455 4.71381 1.03619C4.72545 1.04784 4.73465 1.06169 4.74087 1.07694C4.74708 1.09219 4.75019 1.10853 4.75 1.125V1.5ZM5.25 6.25891C5.24769 6.32365 5.22034 6.38498 5.1737 6.42995C5.12706 6.47493 5.06479 6.50004 5 6.5H4.99094C4.95811 6.49883 4.92584 6.49121 4.89597 6.47756C4.86609 6.46391 4.8392 6.44451 4.81682 6.42047C4.79445 6.39643 4.77703 6.36821 4.76556 6.33743C4.7541 6.30665 4.74881 6.27392 4.75 6.24109L4.875 2.74109C4.87617 2.70826 4.88379 2.67598 4.89744 2.6461C4.91108 2.61622 4.93048 2.58931 4.95452 2.56693C4.97856 2.54454 5.00678 2.52711 5.03756 2.51562C5.06834 2.50414 5.10108 2.49883 5.13391 2.5C5.16674 2.50117 5.19902 2.50879 5.2289 2.52244C5.25878 2.53608 5.28569 2.55548 5.30807 2.57952C5.33046 2.60356 5.3479 2.63178 5.35938 2.66256C5.37086 2.69334 5.37617 2.72608 5.375 2.75891L5.25 6.25891Z" fill="#FF3737"/>
</svg>
