<svg width="41" height="37" viewBox="0 0 41 37" fill="none" xmlns="http://www.w3.org/2000/svg">
<g clip-path="url(#clip0_736_553)">
<path d="M16.2211 12.7651C14.7278 13.2434 13.9048 14.8414 14.3832 16.3351C14.7861 17.5929 15.9835 18.3734 17.2431 18.3038L16.5312 25.6C17.8457 25.4278 19.135 26.2138 19.5539 27.5217C20.0252 28.993 19.2159 30.5683 17.7451 31.0395C16.274 31.5106 14.7001 30.6985 14.2288 29.2272C13.8938 28.1811 14.2069 27.0841 14.9437 26.3672L8.98288 21.4425C9.46349 20.7865 9.63528 19.9189 9.36802 19.0845C8.92464 17.7002 7.44471 16.9349 6.06099 17.3781C4.67712 17.8213 3.91498 19.3051 4.35828 20.6891C4.80166 22.0733 6.28324 22.8357 7.66696 22.3925C7.72438 22.3742 7.78146 22.3547 7.83659 22.3329L16.8038 39.0427L41.5271 31.1239L39.1195 12.313C39.1771 12.2987 39.2349 12.2814 39.2923 12.2631C40.676 11.8198 41.4389 10.3385 40.9955 8.95427C40.5522 7.57 39.0699 6.80541 37.6862 7.24862C36.3024 7.69185 35.5403 9.17556 35.9836 10.5596C36.2522 11.3986 36.9031 12.0065 37.6814 12.2587L35.7113 19.7505C36.6978 19.9279 37.5564 20.6294 37.8835 21.6508C38.3548 23.1221 37.5456 24.6974 36.0747 25.1686C34.6038 25.6397 33.0298 24.8276 32.5585 23.3563C32.1297 22.0176 32.7609 20.5942 33.9855 19.9932L29.2236 14.4851C30.3291 13.8225 30.876 12.4646 30.4658 11.1839C29.9873 9.68998 28.3891 8.86772 26.8958 9.34601C25.4022 9.8244 24.5792 11.4224 25.0576 12.9161C25.4285 14.0738 26.4729 14.8277 27.6188 14.886L26.0386 21.9456C27.2957 21.9329 28.468 22.7299 28.8716 23.99C29.3677 25.5388 28.5139 27.1966 26.9655 27.6925C25.4171 28.1885 23.7615 27.3345 23.2654 25.7856C22.8855 24.5997 23.2968 23.3513 24.2048 22.6084L18.83 17.7117C19.744 17.001 20.1653 15.7699 19.7914 14.6028C19.3129 13.1089 17.7146 12.2867 16.2212 12.765L16.2211 12.7651ZM17.2698 40.5054C15.4881 41.4007 16.4798 44.1956 18.596 43.5178L19.1167 43.351L19.1304 43.3764L42.1543 36.0018L42.1506 35.9733L42.7471 35.7823C44.784 35.1299 44.0281 32.2727 42.0862 32.557L17.2698 40.5057L17.2698 40.5054Z" fill="url(#paint0_linear_736_553)"/>
</g>
<defs>
<linearGradient id="paint0_linear_736_553" x1="21.4788" y1="11.081" x2="30.642" y2="39.6892" gradientUnits="userSpaceOnUse">
<stop stop-color="#FFC781"/>
<stop offset="1" stop-color="#FFF6EA"/>
</linearGradient>
<clipPath id="clip0_736_553">
<rect width="42.0625" height="42.0625" fill="white" transform="translate(0 12.8305) rotate(-17.7602)"/>
</clipPath>
</defs>
</svg>
